<svg xmlns="http://www.w3.org/2000/svg" xmlns:xlink="http://www.w3.org/1999/xlink" width="412" zoomAndPan="magnify" viewBox="0 0 309 149.999998" height="200" preserveAspectRatio="xMidYMid meet" version="1.0"><defs><g/><clipPath id="1bbad9971f"><path d="M 103.503906 45 L 171 45 L 171 99.789062 L 103.503906 99.789062 Z M 103.503906 45 " clip-rule="nonzero"/></clipPath><clipPath id="445296a3b3"><path d="M 138 18.039062 L 205.445312 18.039062 L 205.445312 73 L 138 73 Z M 138 18.039062 " clip-rule="nonzero"/></clipPath><clipPath id="005ffd3145"><path d="M 123 29 L 136 29 L 136 42 L 123 42 Z M 123 29 " clip-rule="nonzero"/></clipPath><clipPath id="442e3f4bdc"><path d="M 122.277344 32.816406 L 132.042969 29.058594 L 136.761719 41.324219 L 126.992188 45.082031 Z M 122.277344 32.816406 " clip-rule="nonzero"/></clipPath><clipPath id="f7afc1802a"><path d="M 133.949219 38.457031 C 133.6875 37.132812 134.015625 33.304688 132.65625 30.933594 C 132.050781 29.886719 130.492188 29.324219 129.566406 30.109375 C 129.195312 30.421875 128.992188 30.894531 128.890625 31.371094 C 128.605469 32.65625 128.972656 33.972656 129.390625 35.230469 C 129.425781 35.316406 129.460938 35.300781 129.390625 35.230469 C 128.632812 34.445312 127.664062 33.785156 126.632812 33.464844 C 125.484375 33.109375 123.984375 33.511719 123.554688 34.640625 C 123.046875 35.933594 124.140625 37.273438 125.257812 38.101562 C 127.785156 39.976562 130.859375 40.992188 133.960938 41.558594 C 134.335938 41.628906 135.011719 41.742188 135.488281 41.792969 C 135.578125 41.800781 135.625 41.699219 135.558594 41.636719 C 135.339844 41.457031 134.328125 40.882812 133.949219 38.457031 Z M 133.949219 38.457031 " clip-rule="nonzero"/></clipPath><clipPath id="4b2aa97c07"><path d="M 125 18 L 134 18 L 134 29 L 125 29 Z M 125 18 " clip-rule="nonzero"/></clipPath><clipPath id="daf06dfb6c"><path d="M 125.980469 18.035156 L 133.890625 18.703125 L 133.054688 28.636719 L 125.144531 27.96875 Z M 125.980469 18.035156 " clip-rule="nonzero"/></clipPath><clipPath id="e1fec02e54"><path d="M 132.082031 25.75 C 132.339844 24.757812 133.832031 22.253906 133.6875 20.1875 C 133.621094 19.273438 132.742188 18.371094 131.851562 18.601562 C 131.496094 18.691406 131.203125 18.945312 130.972656 19.238281 C 130.355469 20.019531 130.167969 21.042969 130.039062 22.039062 C 130.035156 22.105469 130.0625 22.109375 130.039062 22.039062 C 129.78125 21.25 129.335938 20.480469 128.742188 19.921875 C 128.074219 19.296875 126.917969 19.078125 126.25 19.703125 C 125.476562 20.417969 125.78125 21.695312 126.269531 22.628906 C 127.371094 24.746094 129.136719 26.457031 131.0625 27.867188 C 131.300781 28.039062 131.722656 28.339844 132.03125 28.535156 C 132.089844 28.570312 132.152344 28.511719 132.128906 28.449219 C 132.039062 28.253906 131.539062 27.53125 132.082031 25.75 Z M 132.082031 25.75 " clip-rule="nonzero"/></clipPath><clipPath id="6de2c4cfd8"><path d="M 122.339844 118.046875 L 127.410156 118.046875 L 127.410156 123.117188 L 122.339844 123.117188 Z M 122.339844 118.046875 " clip-rule="nonzero"/></clipPath><clipPath id="b1abb503e5"><path d="M 124.875 118.046875 C 123.476562 118.046875 122.339844 119.179688 122.339844 120.582031 C 122.339844 121.980469 123.476562 123.117188 124.875 123.117188 C 126.273438 123.117188 127.410156 121.980469 127.410156 120.582031 C 127.410156 119.179688 126.273438 118.046875 124.875 118.046875 Z M 124.875 118.046875 " clip-rule="nonzero"/></clipPath></defs><rect x="-30.9" width="370.8" fill="#ffffff" y="-15" height="179.999997" fill-opacity="1"/><rect x="-30.9" width="370.8" fill="#ffffff" y="-15" height="179.999997" fill-opacity="1"/><g clip-path="url(#1bbad9971f)"><path fill="#8c2641" d="M 137.082031 45.03125 C 155.699219 44.925781 170.851562 55.160156 170.921875 67.894531 C 170.992188 80.289062 153.167969 97.808594 142.84375 99.855469 C 145.796875 96.984375 148.105469 93.46875 149.523438 89.519531 C 145.746094 90.542969 141.640625 91.117188 137.34375 91.140625 C 118.726562 91.246094 103.574219 81.011719 103.503906 68.277344 C 103.429688 55.542969 118.464844 45.136719 137.082031 45.03125 " fill-opacity="1" fill-rule="evenodd"/></g><path fill="#ffffff" d="M 154.578125 63.40625 C 157.0625 63.351562 159.125 65.320312 159.179688 67.804688 C 159.234375 70.292969 157.261719 72.351562 154.777344 72.40625 C 152.289062 72.460938 150.230469 70.488281 150.175781 68.003906 C 150.121094 65.515625 152.09375 63.457031 154.578125 63.40625 Z M 137.117188 63.785156 C 139.601562 63.730469 141.660156 65.703125 141.714844 68.1875 C 141.769531 70.675781 139.796875 72.734375 137.3125 72.789062 C 134.828125 72.839844 132.765625 70.871094 132.710938 68.386719 C 132.660156 65.898438 134.628906 63.839844 137.117188 63.785156 Z M 119.652344 64.167969 C 122.136719 64.113281 124.199219 66.085938 124.253906 68.570312 C 124.304688 71.054688 122.335938 73.117188 119.847656 73.167969 C 117.363281 73.222656 115.304688 71.253906 115.25 68.765625 C 115.195312 66.28125 117.167969 64.222656 119.652344 64.167969 " fill-opacity="1" fill-rule="evenodd"/><g clip-path="url(#445296a3b3)"><path fill="#faacc4" d="M 171.585938 18.144531 C 190.203125 18.039062 205.355469 28.273438 205.429688 41.007812 C 205.5 53.402344 187.671875 70.921875 177.347656 72.96875 C 180.300781 70.097656 182.609375 66.582031 184.027344 62.632812 C 180.253906 63.65625 176.144531 64.230469 171.847656 64.253906 C 153.230469 64.359375 138.082031 54.125 138.007812 41.390625 C 137.933594 28.65625 152.96875 18.25 171.585938 18.144531 " fill-opacity="1" fill-rule="evenodd"/></g><path fill="#ffffff" d="M 189.085938 36.515625 C 191.570312 36.464844 193.628906 38.433594 193.683594 40.917969 C 193.738281 43.40625 191.765625 45.464844 189.28125 45.519531 C 186.796875 45.574219 184.734375 43.601562 184.679688 41.117188 C 184.628906 38.628906 186.597656 36.570312 189.085938 36.515625 Z M 171.621094 36.898438 C 174.105469 36.84375 176.164062 38.816406 176.21875 41.300781 C 176.273438 43.789062 174.304688 45.847656 171.816406 45.902344 C 169.332031 45.953125 167.273438 43.984375 167.21875 41.5 C 167.164062 39.011719 169.136719 36.953125 171.621094 36.898438 Z M 154.15625 37.28125 C 156.644531 37.226562 158.703125 39.199219 158.757812 41.683594 C 158.8125 44.167969 156.839844 46.230469 154.355469 46.28125 C 151.867188 46.335938 149.808594 44.367188 149.753906 41.878906 C 149.699219 39.394531 151.671875 37.335938 154.15625 37.28125 " fill-opacity="1" fill-rule="evenodd"/><path fill="#c36982" d="M 138.453125 45.042969 C 154.636719 45.394531 167.925781 53.5625 170.480469 64.242188 C 154.296875 63.890625 141.003906 55.722656 138.453125 45.042969 " fill-opacity="1" fill-rule="evenodd"/><g clip-path="url(#005ffd3145)"><g clip-path="url(#442e3f4bdc)"><g clip-path="url(#f7afc1802a)"><path fill="#8c2641" d="M 122.3125 32.800781 L 132.003906 29.074219 L 136.722656 41.339844 L 127.03125 45.066406 Z M 122.3125 32.800781 " fill-opacity="1" fill-rule="nonzero"/></g></g></g><g clip-path="url(#4b2aa97c07)"><g clip-path="url(#daf06dfb6c)"><g clip-path="url(#e1fec02e54)"><path fill="#faacc4" d="M 126.011719 18.039062 L 133.859375 18.699219 L 133.023438 28.632812 L 125.175781 27.972656 Z M 126.011719 18.039062 " fill-opacity="1" fill-rule="nonzero"/></g></g></g><g clip-path="url(#6de2c4cfd8)"><g clip-path="url(#b1abb503e5)"><path fill="#faacc4" d="M 122.339844 118.046875 L 127.410156 118.046875 L 127.410156 123.117188 L 122.339844 123.117188 Z M 122.339844 118.046875 " fill-opacity="1" fill-rule="nonzero"/></g></g><g fill="#732634" fill-opacity="1"><g transform="translate(84.313316, 126.35638)"><g><path d="M 9.898438 -16.832031 L 7.519531 -16.832031 L 7.519531 -4.464844 C 7.519531 -3.808594 7.277344 -3.273438 6.816406 -2.839844 C 6.378906 -2.351562 5.820312 -2.132812 5.191406 -2.132812 C 4.535156 -2.132812 4.003906 -2.351562 3.566406 -2.839844 C 3.082031 -3.273438 2.863281 -3.808594 2.863281 -4.464844 L 2.863281 -16.832031 L 0.484375 -16.832031 L 0.484375 -4.464844 C 0.484375 -3.808594 0.605469 -3.203125 0.847656 -2.621094 C 1.089844 -2.039062 1.429688 -1.550781 1.867188 -1.140625 C 2.230469 -0.75 2.644531 -0.460938 3.105469 -0.242188 C 3.566406 0 4.074219 0.144531 4.609375 0.195312 L 5.773438 0.195312 C 6.308594 0.144531 6.792969 0 7.253906 -0.242188 C 7.714844 -0.460938 8.125 -0.75 8.515625 -1.140625 C 8.925781 -1.550781 9.265625 -2.039062 9.507812 -2.621094 C 9.75 -3.203125 9.898438 -3.808594 9.898438 -4.464844 Z M 9.898438 -16.832031 "/></g></g></g><g fill="#732634" fill-opacity="1"><g transform="translate(94.69317, 126.35638)"><g><path d="M 4.730469 0.21875 L 7.445312 0.21875 L 11.667969 -16.808594 L 9.21875 -16.808594 L 6.089844 -4.171875 L 2.933594 -16.808594 L 0.484375 -16.808594 Z M 4.730469 0.21875 "/></g></g></g><g fill="#732634" fill-opacity="1"><g transform="translate(106.843422, 126.35638)"><g><path d="M 10.1875 -4.679688 L 10.140625 -4.679688 L 10.140625 -9.582031 L 4.246094 -9.582031 L 4.246094 -7.179688 L 7.785156 -7.179688 L 7.761719 -4.292969 C 7.6875 -3.757812 7.472656 -3.324219 7.082031 -2.933594 C 6.621094 -2.449219 6.039062 -2.207031 5.335938 -2.207031 C 4.609375 -2.207031 4.027344 -2.449219 3.589844 -2.933594 C 3.347656 -3.152344 3.175781 -3.421875 3.054688 -3.710938 C 2.910156 -4.003906 2.863281 -4.316406 2.863281 -4.679688 L 2.863281 -12.128906 C 2.863281 -12.46875 2.910156 -12.78125 3.054688 -13.074219 C 3.175781 -13.367188 3.347656 -13.609375 3.589844 -13.851562 C 4.027344 -14.335938 4.609375 -14.578125 5.335938 -14.578125 C 6.039062 -14.578125 6.621094 -14.335938 7.082031 -13.851562 C 7.300781 -13.609375 7.472656 -13.367188 7.617188 -13.074219 C 7.738281 -12.78125 7.8125 -12.46875 7.8125 -12.128906 L 10.1875 -12.128906 C 10.1875 -12.808594 10.042969 -13.4375 9.800781 -14.019531 C 9.558594 -14.601562 9.191406 -15.113281 8.757812 -15.546875 C 8.320312 -15.984375 7.8125 -16.324219 7.226562 -16.566406 C 6.644531 -16.808594 6.015625 -16.957031 5.335938 -16.957031 C 4.65625 -16.957031 4.027344 -16.808594 3.445312 -16.566406 C 2.863281 -16.324219 2.351562 -15.984375 1.917969 -15.546875 C 1.457031 -15.113281 1.089844 -14.601562 0.847656 -14.019531 C 0.605469 -13.4375 0.484375 -12.808594 0.484375 -12.128906 L 0.484375 -4.679688 C 0.484375 -4.003906 0.605469 -3.347656 0.847656 -2.765625 C 1.089844 -2.183594 1.457031 -1.671875 1.917969 -1.238281 C 2.351562 -0.800781 2.863281 -0.4375 3.445312 -0.195312 C 4.027344 0.046875 4.65625 0.167969 5.335938 0.167969 C 6.015625 0.167969 6.644531 0.046875 7.226562 -0.195312 C 7.8125 -0.4375 8.320312 -0.800781 8.757812 -1.238281 C 9.191406 -1.671875 9.558594 -2.183594 9.800781 -2.765625 C 10.042969 -3.347656 10.1875 -4.003906 10.1875 -4.679688 Z M 10.1875 -4.679688 "/></g></g></g><g fill="#732634" fill-opacity="1"><g transform="translate(132.221992, 126.35638)"><g><path d="M 12.6875 0 L 15.0625 0 L 15.0625 -17.027344 L 12.03125 -17.027344 L 7.785156 -3.515625 L 3.515625 -17.027344 L 0.484375 -17.027344 L 0.484375 0 L 2.886719 0 L 2.886719 -11.15625 L 6.402344 0 L 9.167969 0 L 12.6875 -11.15625 Z M 12.6875 0 "/></g></g></g><g fill="#732634" fill-opacity="1"><g transform="translate(147.767517, 126.35638)"><g><path d="M 7.375 -16.90625 L 4.730469 -16.90625 L 0.484375 0.121094 L 2.933594 0.121094 L 3.613281 -2.59375 L 8.488281 -2.59375 L 9.144531 0.121094 L 11.59375 0.121094 Z M 7.882812 -4.972656 L 4.195312 -4.972656 L 6.039062 -12.371094 Z M 7.882812 -4.972656 "/></g></g></g><g fill="#732634" fill-opacity="1"><g transform="translate(159.845008, 126.35638)"><g><path d="M 6.574219 -14.480469 L 10.1875 -14.480469 L 10.1875 -16.832031 L 0.484375 -16.832031 L 0.484375 -14.480469 L 4.195312 -14.480469 L 4.195312 0.195312 L 6.574219 0.195312 Z M 6.574219 -14.480469 "/></g></g></g><g fill="#732634" fill-opacity="1"><g transform="translate(170.515887, 126.35638)"><g><path d="M 10.1875 -4.679688 L 7.8125 -4.679688 C 7.8125 -4.34375 7.738281 -4.003906 7.617188 -3.710938 C 7.472656 -3.421875 7.300781 -3.152344 7.082031 -2.933594 C 6.597656 -2.449219 6.015625 -2.207031 5.335938 -2.207031 C 4.609375 -2.207031 4.027344 -2.449219 3.589844 -2.933594 C 3.347656 -3.152344 3.175781 -3.421875 3.054688 -3.710938 C 2.910156 -4.003906 2.863281 -4.34375 2.863281 -4.679688 L 2.863281 -12.199219 C 2.863281 -12.539062 2.910156 -12.855469 3.054688 -13.148438 C 3.175781 -13.4375 3.347656 -13.703125 3.589844 -13.949219 C 3.808594 -14.164062 4.074219 -14.335938 4.367188 -14.480469 C 4.65625 -14.601562 4.996094 -14.675781 5.335938 -14.675781 C 5.675781 -14.675781 5.992188 -14.601562 6.28125 -14.480469 C 6.574219 -14.335938 6.839844 -14.164062 7.082031 -13.949219 C 7.300781 -13.703125 7.472656 -13.4375 7.617188 -13.148438 C 7.738281 -12.855469 7.8125 -12.539062 7.8125 -12.199219 L 10.1875 -12.199219 C 10.1875 -12.878906 10.042969 -13.511719 9.800781 -14.09375 C 9.53125 -14.675781 9.191406 -15.183594 8.757812 -15.644531 C 8.320312 -16.082031 7.8125 -16.421875 7.226562 -16.664062 C 6.644531 -16.90625 6.015625 -17.050781 5.335938 -17.050781 C 4.65625 -17.050781 4.027344 -16.90625 3.445312 -16.664062 C 2.863281 -16.421875 2.351562 -16.082031 1.917969 -15.644531 C 1.457031 -15.183594 1.089844 -14.675781 0.847656 -14.09375 C 0.605469 -13.511719 0.484375 -12.878906 0.484375 -12.199219 L 0.484375 -4.679688 C 0.484375 -4.003906 0.605469 -3.371094 0.847656 -2.789062 C 1.089844 -2.207031 1.457031 -1.671875 1.917969 -1.238281 C 2.351562 -0.800781 2.863281 -0.4375 3.445312 -0.195312 C 4.027344 0.046875 4.65625 0.167969 5.335938 0.167969 C 6.015625 0.167969 6.644531 0.046875 7.226562 -0.195312 C 7.8125 -0.4375 8.320312 -0.800781 8.757812 -1.238281 C 9.191406 -1.671875 9.53125 -2.207031 9.800781 -2.789062 C 10.042969 -3.371094 10.1875 -4.003906 10.1875 -4.679688 Z M 10.1875 -4.679688 "/></g></g></g><g fill="#732634" fill-opacity="1"><g transform="translate(181.186766, 126.35638)"><g><path d="M 9.605469 -16.859375 L 7.226562 -16.859375 L 7.226562 -9.582031 L 2.863281 -9.582031 L 2.863281 -16.859375 L 0.484375 -16.859375 L 0.484375 0.167969 L 2.863281 0.167969 L 2.863281 -7.179688 L 7.226562 -7.179688 L 7.226562 0.167969 L 9.605469 0.167969 Z M 9.605469 -16.859375 "/></g></g></g><g fill="#faacc4" fill-opacity="1"><g transform="translate(194.799762, 125.821929)"><g><path d="M 0.265625 0.105469 L 1.570312 0.105469 L 1.570312 -3.683594 L 2.605469 -3.683594 C 3.003906 -3.683594 3.363281 -3.75 3.710938 -3.894531 C 4.042969 -4.042969 4.335938 -4.242188 4.601562 -4.507812 C 4.851562 -4.761719 5.054688 -5.054688 5.210938 -5.398438 C 5.359375 -5.730469 5.4375 -6.101562 5.4375 -6.503906 C 5.4375 -6.902344 5.359375 -7.261719 5.210938 -7.605469 C 5.054688 -7.9375 4.851562 -8.230469 4.601562 -8.496094 C 4.242188 -8.84375 3.816406 -9.09375 3.335938 -9.226562 L 0.265625 -9.226562 Z M 1.570312 -8.019531 L 2.605469 -8.019531 C 2.820312 -8.019531 3.003906 -7.976562 3.191406 -7.898438 C 3.378906 -7.820312 3.535156 -7.699219 3.683594 -7.566406 C 3.976562 -7.285156 4.121094 -6.929688 4.121094 -6.503906 C 4.121094 -6.078125 3.976562 -5.71875 3.683594 -5.425781 C 3.535156 -5.292969 3.378906 -5.1875 3.191406 -5.105469 C 3.003906 -5.027344 2.820312 -4.988281 2.605469 -4.988281 L 1.570312 -4.988281 Z M 1.570312 -8.019531 "/></g></g></g><g fill="#faacc4" fill-opacity="1"><g transform="translate(200.50209, 125.821929)"><g><path d="M 4.027344 -4.160156 C 4.1875 -4.253906 4.320312 -4.375 4.453125 -4.507812 C 4.707031 -4.761719 4.90625 -5.054688 5.054688 -5.398438 C 5.199219 -5.730469 5.277344 -6.101562 5.277344 -6.503906 C 5.277344 -6.902344 5.199219 -7.261719 5.054688 -7.605469 C 4.90625 -7.9375 4.707031 -8.230469 4.453125 -8.496094 C 4.09375 -8.84375 3.671875 -9.09375 3.191406 -9.226562 L 0.265625 -9.226562 L 0.265625 0.105469 L 1.570312 0.105469 L 1.570312 -3.683594 L 2.632812 -3.683594 C 2.6875 -3.683594 2.753906 -3.683594 2.804688 -3.695312 C 2.910156 -3.457031 3.003906 -3.191406 3.058594 -2.871094 C 3.113281 -2.554688 3.179688 -2.234375 3.246094 -1.902344 C 3.296875 -1.554688 3.351562 -1.210938 3.417969 -0.863281 C 3.46875 -0.519531 3.5625 -0.199219 3.683594 0.105469 L 5.121094 0.105469 C 4.945312 -0.1875 4.828125 -0.519531 4.746094 -0.917969 C 4.667969 -1.304688 4.585938 -1.703125 4.519531 -2.101562 C 4.453125 -2.472656 4.386719 -2.832031 4.320312 -3.179688 C 4.253906 -3.523438 4.160156 -3.84375 4.027344 -4.160156 Z M 1.570312 -4.988281 L 1.570312 -8.019531 L 2.460938 -8.019531 C 2.671875 -8.019531 2.859375 -7.976562 3.046875 -7.898438 C 3.230469 -7.820312 3.390625 -7.699219 3.535156 -7.566406 C 3.671875 -7.433594 3.777344 -7.273438 3.855469 -7.085938 C 3.9375 -6.902344 3.976562 -6.703125 3.976562 -6.503906 C 3.976562 -6.289062 3.9375 -6.101562 3.855469 -5.917969 C 3.777344 -5.730469 3.671875 -5.558594 3.535156 -5.425781 C 3.390625 -5.292969 3.230469 -5.1875 3.046875 -5.105469 C 2.859375 -5.027344 2.671875 -4.988281 2.460938 -4.988281 Z M 1.570312 -4.988281 "/></g></g></g><g fill="#faacc4" fill-opacity="1"><g transform="translate(206.044911, 125.821929)"><g><path d="M 3.085938 -9.269531 C 2.6875 -9.269531 2.328125 -9.1875 1.980469 -9.027344 C 1.636719 -8.867188 1.34375 -8.667969 1.089844 -8.417969 C 0.824219 -8.152344 0.625 -7.84375 0.480469 -7.5 C 0.332031 -7.152344 0.265625 -6.78125 0.265625 -6.394531 L 0.265625 -2.738281 C 0.265625 -2.339844 0.332031 -1.96875 0.480469 -1.636719 C 0.625 -1.289062 0.824219 -0.996094 1.089844 -0.746094 C 1.34375 -0.480469 1.636719 -0.277344 1.980469 -0.132812 C 2.328125 0.0273438 2.6875 0.09375 3.085938 0.09375 C 3.484375 0.09375 3.84375 0.0273438 4.1875 -0.132812 C 4.519531 -0.277344 4.8125 -0.480469 5.078125 -0.746094 C 5.332031 -0.996094 5.53125 -1.289062 5.691406 -1.636719 C 5.835938 -1.96875 5.917969 -2.339844 5.917969 -2.738281 L 5.917969 -6.394531 C 5.917969 -6.78125 5.835938 -7.152344 5.691406 -7.5 C 5.53125 -7.84375 5.332031 -8.152344 5.078125 -8.417969 C 4.8125 -8.667969 4.519531 -8.867188 4.1875 -9.027344 C 3.84375 -9.1875 3.484375 -9.269531 3.085938 -9.269531 Z M 4.148438 -7.5 C 4.28125 -7.339844 4.402344 -7.179688 4.480469 -6.996094 C 4.5625 -6.808594 4.601562 -6.609375 4.601562 -6.394531 L 4.601562 -2.738281 C 4.601562 -2.3125 4.453125 -1.953125 4.160156 -1.664062 C 3.871094 -1.371094 3.511719 -1.222656 3.085938 -1.222656 C 2.644531 -1.222656 2.285156 -1.371094 2.019531 -1.664062 C 1.875 -1.796875 1.769531 -1.953125 1.6875 -2.140625 C 1.609375 -2.328125 1.570312 -2.527344 1.570312 -2.738281 L 1.570312 -6.394531 C 1.570312 -6.609375 1.609375 -6.808594 1.6875 -6.996094 C 1.769531 -7.179688 1.875 -7.339844 2.035156 -7.5 C 2.167969 -7.632812 2.3125 -7.753906 2.5 -7.832031 C 2.6875 -7.910156 2.871094 -7.964844 3.085938 -7.964844 C 3.285156 -7.964844 3.46875 -7.910156 3.65625 -7.832031 C 3.84375 -7.753906 4.003906 -7.632812 4.148438 -7.5 Z M 4.148438 -7.5 "/></g></g></g></svg>