<?xml version="1.0" encoding="utf-8"?>
<!-- Generator: Adobe Illustrator 25.4.1, SVG Export Plug-In . SVG Version: 6.00 Build 0)  -->
<svg version="1.1" xmlns="http://www.w3.org/2000/svg" xmlns:xlink="http://www.w3.org/1999/xlink" x="0px" y="0px"
	 viewBox="0 0 473 182" style="enable-background:new 0 0 473 182;" xml:space="preserve">
<style type="text/css">
	.st0{fill:#ED1E79;}
	.st1{font-family:'CommercialScriptBT-Regular';}
	.st2{font-size:163.073px;}
	.st3{fill:#009245;}
	.st4{display:none;}
	.st5{display:inline;fill:#42210B;}
	.st6{font-family:'MyriadPro-Regular';}
	.st7{font-size:32.6146px;}
</style>
<g id="Capa_1">
	<g>
		<text transform="matrix(1 0 0 1 45.8744 162.5387)" class="st0 st1 st2">Match</text>
	</g>
</g>
<g id="Capa_2">
	<path class="st3" d="M96.8,54.6l-8.99-15.56c-0.76-1.32-1.04-2.49-0.83-3.5c0.21-1.01,0.81-1.79,1.78-2.35
		c1.02-0.59,2.01-0.72,2.99-0.4c0.98,0.32,1.85,1.14,2.61,2.46l9.19,15.92c1.05,1.81,2.12,3.21,3.23,4.19
		c1.11,0.98,2.37,1.51,3.78,1.58c1.42,0.07,3.05-0.42,4.91-1.49c2.56-1.48,3.98-3.2,4.25-5.18c0.27-1.97-0.39-4.34-1.99-7.11
		l-9.27-16.05c-0.77-1.34-1.05-2.51-0.84-3.5c0.21-0.99,0.81-1.78,1.8-2.35c0.99-0.57,1.97-0.7,2.96-0.4
		c0.99,0.3,1.87,1.12,2.64,2.46l8.99,15.56c1.46,2.53,2.43,4.79,2.92,6.76c0.48,1.98,0.41,4-0.22,6.07
		c-0.55,1.77-1.46,3.35-2.73,4.76c-1.27,1.4-2.95,2.71-5.04,3.91c-2.49,1.44-4.78,2.4-6.89,2.9c-2.11,0.5-4.05,0.51-5.83,0.04
		c-1.78-0.47-3.45-1.43-4.99-2.89C99.69,58.99,98.21,57.04,96.8,54.6z"/>
	<path class="st3" d="M123.35,21l13.11,22.97l3.5-26.4c0.18-1.39,0.33-2.35,0.45-2.91c0.12-0.55,0.39-1.08,0.81-1.59
		c0.42-0.51,1.06-0.84,1.93-1.01c0.63-0.12,1.25-0.08,1.86,0.13c0.6,0.21,1.11,0.55,1.52,1.01c0.41,0.47,0.67,0.97,0.77,1.5
		c0.07,0.37,0.1,0.77,0.08,1.22c-0.02,0.44-0.06,0.89-0.13,1.32c-0.07,0.44-0.14,0.89-0.2,1.35l-4.2,25.7
		c-0.14,0.98-0.28,1.91-0.44,2.8c-0.16,0.89-0.38,1.69-0.68,2.39c-0.3,0.71-0.75,1.33-1.36,1.86c-0.61,0.54-1.42,0.9-2.42,1.1
		s-1.89,0.16-2.65-0.09c-0.77-0.26-1.43-0.67-1.98-1.22c-0.55-0.56-1.06-1.22-1.54-1.97c-0.48-0.76-0.96-1.56-1.46-2.42
		l-13.37-22.06c-0.23-0.4-0.47-0.8-0.71-1.19c-0.24-0.39-0.46-0.81-0.66-1.27c-0.2-0.46-0.34-0.86-0.4-1.19
		c-0.17-0.85,0.02-1.69,0.57-2.53c0.55-0.83,1.34-1.35,2.37-1.55c1.27-0.25,2.24-0.03,2.92,0.64C121.69,18.27,122.47,19.4,123.35,21
		z"/>
	<path class="st3" d="M179.08,42.5l-1.88,6.91c-0.25,0.92-0.54,1.63-0.87,2.13c-0.33,0.5-0.8,0.91-1.4,1.22
		c-0.6,0.31-1.34,0.57-2.2,0.77c-2.5,0.59-4.84,0.88-7,0.87c-2.16-0.01-4.44-0.33-6.81-0.98c-2.77-0.75-5.18-1.87-7.23-3.34
		c-2.05-1.47-3.66-3.24-4.82-5.3c-1.17-2.06-1.87-4.36-2.1-6.91c-0.23-2.55,0.04-5.25,0.81-8.1c0.76-2.8,1.88-5.26,3.35-7.36
		c1.47-2.1,3.24-3.74,5.3-4.93c2.06-1.18,4.38-1.89,6.94-2.12c2.56-0.23,5.32,0.06,8.27,0.86c2.43,0.66,4.49,1.57,6.18,2.72
		c1.69,1.16,2.99,2.38,3.89,3.68c0.9,1.3,1.49,2.58,1.78,3.84c0.29,1.26,0.32,2.32,0.09,3.17c-0.25,0.92-0.8,1.61-1.66,2.07
		c-0.86,0.46-1.76,0.57-2.71,0.31c-0.52-0.14-1-0.4-1.41-0.78c-0.42-0.38-0.73-0.83-0.94-1.36c-0.52-1.66-0.99-2.93-1.42-3.82
		c-0.43-0.89-1.1-1.73-2.03-2.51c-0.92-0.78-2.21-1.39-3.85-1.84c-1.69-0.46-3.28-0.58-4.76-0.36c-1.49,0.22-2.85,0.76-4.1,1.61
		c-1.24,0.85-2.33,2.01-3.27,3.48c-0.94,1.47-1.67,3.18-2.2,5.13c-1.15,4.23-1.06,7.75,0.26,10.56c1.32,2.81,3.72,4.68,7.2,5.63
		c1.69,0.46,3.34,0.67,4.94,0.63c1.6-0.04,3.28-0.26,5.03-0.67l1.59-5.86l-5.66-1.54c-1.36-0.37-2.33-0.85-2.92-1.45
		c-0.59-0.6-0.74-1.39-0.48-2.38c0.22-0.8,0.69-1.39,1.41-1.76c0.72-0.37,1.59-0.41,2.59-0.14l8.29,2.25
		c1.02,0.28,1.85,0.6,2.51,0.97c0.66,0.37,1.12,0.93,1.38,1.67S179.42,41.26,179.08,42.5z"/>
</g>
<g id="Capa_3" class="st4">
	<text transform="matrix(1 0 0 1 405.4449 162.4288)" class="st5 st6 st7">PRO</text>
</g>
</svg>
